<svg width="62" height="55" viewBox="0 0 62 55" fill="none" xmlns="http://www.w3.org/2000/svg">
<path d="M33.3247 17.0264L35.8111 2.12695C36.0156 0.902344 37.0813 0 38.3299 0C39.1372 0 39.8906 0.375977 40.375 1.02051L42.1941 3.4375H47.8021C49.1691 3.4375 50.4823 3.98535 51.4511 4.95215L53.3886 6.875H59.4163C60.8479 6.875 61.9997 8.02441 61.9997 9.45312V12.0312C61.9997 16.7793 58.1462 20.625 53.3886 20.625H49.9441H48.2219H45.9292L45.3802 23.9014L33.3247 17.0264ZM44.7774 27.5107V51.5625C44.7774 53.4639 43.2382 55 41.333 55H37.8886C35.9833 55 34.4441 53.4639 34.4441 51.5625V39.1875C31.8608 40.5088 28.933 41.25 25.833 41.25C22.733 41.25 19.8052 40.5088 17.2219 39.1875V51.5625C17.2219 53.4639 15.6827 55 13.7774 55H10.333C8.42779 55 6.88855 53.4639 6.88855 51.5625V26.834C3.78855 25.6631 1.35591 23.042 0.516331 19.6904L0.107304 18.0254C-0.355544 16.1885 0.763901 14.3193 2.61529 13.8574C4.46668 13.3955 6.32883 14.5127 6.79168 16.3604L7.21147 18.0254C7.58821 19.5508 8.96598 20.625 10.5483 20.625H13.7774H15.4997H32.7004L44.7774 27.5107ZM49.9441 8.59375C49.9441 8.13791 49.7627 7.70074 49.4397 7.37841C49.1167 7.05608 48.6786 6.875 48.2219 6.875C47.7651 6.875 47.3271 7.05608 47.0041 7.37841C46.6811 7.70074 46.4997 8.13791 46.4997 8.59375C46.4997 9.04959 46.6811 9.48676 47.0041 9.80909C47.3271 10.1314 47.7651 10.3125 48.2219 10.3125C48.6786 10.3125 49.1167 10.1314 49.4397 9.80909C49.7627 9.48676 49.9441 9.04959 49.9441 8.59375Z" fill="black"/>
</svg>
